<svg width="284" height="100" viewBox="0 0 284 100" fill="none" xmlns="http://www.w3.org/2000/svg">
<path d="M50.3289 68.2898C49.7664 73.1023 47.9852 76.821 44.9852 79.446C42.006 82.0502 38.0373 83.3523 33.0789 83.3523C27.7039 83.3523 23.3914 81.4252 20.1414 77.571C16.9123 73.7169 15.2977 68.5606 15.2977 62.1023V57.7273C15.2977 53.4981 16.0477 49.7794 17.5477 46.571C19.0685 43.3627 21.2143 40.9044 23.9852 39.196C26.756 37.4669 29.9643 36.6023 33.6102 36.6023C38.4435 36.6023 42.3185 37.9565 45.2352 40.6648C48.1518 43.3523 49.8498 47.0815 50.3289 51.8523H44.2977C43.7768 48.2273 42.6414 45.6023 40.8914 43.9773C39.1623 42.3523 36.7352 41.5398 33.6102 41.5398C29.7768 41.5398 26.7664 42.9565 24.5789 45.7898C22.4123 48.6231 21.3289 52.6544 21.3289 57.8835V62.2898C21.3289 67.2273 22.3602 71.1544 24.4227 74.071C26.4852 76.9877 29.3706 78.446 33.0789 78.446C36.4123 78.446 38.9643 77.696 40.7352 76.196C42.5268 74.6752 43.7143 72.0398 44.2977 68.2898H50.3289Z" fill="black"/>
<path d="M11.3125 65.0938H32.875V70H5.28125V24.5H11.3125V65.0938Z" fill="black"/>
<path d="M79.8379 70.167H96.6836V74H75.126V38.4531H79.8379V70.167ZM112.434 74.4883C108.853 74.4883 105.94 73.3164 103.694 70.9727C101.448 68.6126 100.325 65.4632 100.325 61.5244V60.6943C100.325 58.0739 100.821 55.7383 101.814 53.6875C102.823 51.6204 104.223 50.0091 106.013 48.8535C107.82 47.6816 109.773 47.0957 111.873 47.0957C115.307 47.0957 117.976 48.2269 119.88 50.4893C121.785 52.7516 122.737 55.9906 122.737 60.2061V62.0859H104.841C104.907 64.6901 105.663 66.7979 107.112 68.4092C108.577 70.0042 110.432 70.8018 112.678 70.8018C114.273 70.8018 115.624 70.4762 116.731 69.8252C117.838 69.1742 118.806 68.3115 119.636 67.2373L122.395 69.3857C120.182 72.7874 116.861 74.4883 112.434 74.4883ZM111.873 50.8066C110.05 50.8066 108.52 51.474 107.283 52.8086C106.046 54.127 105.281 55.9824 104.988 58.375H118.22V58.0332C118.09 55.7383 117.472 53.9642 116.365 52.7109C115.258 51.4414 113.761 50.8066 111.873 50.8066ZM134.264 41.1875V47.584H139.196V51.0752H134.264V67.457C134.264 68.515 134.484 69.3125 134.923 69.8496C135.362 70.3704 136.111 70.6309 137.169 70.6309C137.69 70.6309 138.406 70.5332 139.318 70.3379V74C138.129 74.3255 136.974 74.4883 135.851 74.4883C133.833 74.4883 132.311 73.8779 131.285 72.6572C130.26 71.4365 129.747 69.7031 129.747 67.457V51.0752H124.938V47.584H129.747V41.1875H134.264ZM160.024 66.9932C160.024 65.7725 159.56 64.8285 158.633 64.1611C157.721 63.4775 156.118 62.8916 153.823 62.4033C151.544 61.915 149.73 61.3291 148.379 60.6455C147.044 59.9619 146.051 59.1481 145.4 58.2041C144.765 57.2601 144.448 56.137 144.448 54.835C144.448 52.6702 145.36 50.8392 147.182 49.3418C149.022 47.8444 151.365 47.0957 154.214 47.0957C157.208 47.0957 159.634 47.8688 161.489 49.415C163.361 50.9613 164.297 52.9388 164.297 55.3477H159.756C159.756 54.1107 159.227 53.0446 158.169 52.1494C157.127 51.2542 155.809 50.8066 154.214 50.8066C152.57 50.8066 151.284 51.1647 150.356 51.8809C149.429 52.597 148.965 53.5329 148.965 54.6885C148.965 55.779 149.396 56.6009 150.259 57.1543C151.121 57.7077 152.676 58.2367 154.922 58.7412C157.184 59.2458 159.015 59.848 160.415 60.5479C161.815 61.2477 162.848 62.0941 163.515 63.0869C164.199 64.0635 164.541 65.2598 164.541 66.6758C164.541 69.0358 163.597 70.932 161.709 72.3643C159.821 73.7803 157.371 74.4883 154.36 74.4883C152.244 74.4883 150.373 74.1139 148.745 73.3652C147.117 72.6165 145.84 71.5749 144.912 70.2402C144 68.8893 143.545 67.4326 143.545 65.8701H148.061C148.143 67.3838 148.745 68.5882 149.868 69.4834C151.007 70.3623 152.505 70.8018 154.36 70.8018C156.069 70.8018 157.436 70.46 158.462 69.7764C159.503 69.0765 160.024 68.1488 160.024 66.9932ZM197.43 62.7207C196.991 66.4805 195.599 69.3857 193.255 71.4365C190.928 73.471 187.827 74.4883 183.954 74.4883C179.754 74.4883 176.385 72.9827 173.846 69.9717C171.323 66.9606 170.062 62.9323 170.062 57.8867V54.4688C170.062 51.1647 170.648 48.2594 171.82 45.7529C173.008 43.2464 174.684 41.3258 176.849 39.9912C179.014 38.6403 181.52 37.9648 184.369 37.9648C188.145 37.9648 191.172 39.0228 193.451 41.1387C195.729 43.2383 197.056 46.1517 197.43 49.8789H192.718C192.311 47.0469 191.424 44.9961 190.057 43.7266C188.706 42.457 186.81 41.8223 184.369 41.8223C181.374 41.8223 179.022 42.929 177.313 45.1426C175.62 47.3561 174.774 50.5055 174.774 54.5908V58.0332C174.774 61.8906 175.579 64.9587 177.191 67.2373C178.802 69.516 181.056 70.6553 183.954 70.6553C186.558 70.6553 188.551 70.0693 189.935 68.8975C191.335 67.7093 192.262 65.6504 192.718 62.7207H197.43ZM202.097 60.5479C202.097 57.96 202.601 55.6325 203.61 53.5654C204.636 51.4984 206.052 49.9033 207.858 48.7803C209.681 47.6572 211.757 47.0957 214.084 47.0957C217.681 47.0957 220.586 48.3408 222.8 50.8311C225.03 53.3213 226.145 56.6335 226.145 60.7676V61.085C226.145 63.6566 225.648 65.9678 224.655 68.0186C223.679 70.0531 222.271 71.64 220.432 72.7793C218.609 73.9186 216.509 74.4883 214.133 74.4883C210.552 74.4883 207.647 73.2432 205.417 70.7529C203.203 68.2627 202.097 64.9668 202.097 60.8652V60.5479ZM206.638 61.085C206.638 64.0146 207.313 66.3665 208.664 68.1406C210.031 69.9147 211.854 70.8018 214.133 70.8018C216.428 70.8018 218.251 69.9066 219.602 68.1162C220.952 66.3096 221.628 63.7868 221.628 60.5479C221.628 57.6507 220.936 55.307 219.553 53.5166C218.186 51.71 216.363 50.8066 214.084 50.8066C211.854 50.8066 210.056 51.6937 208.688 53.4678C207.321 55.2419 206.638 57.7809 206.638 61.085ZM230.86 60.5723C230.86 56.5195 231.82 53.2643 233.741 50.8066C235.661 48.3327 238.176 47.0957 241.285 47.0957C244.377 47.0957 246.827 48.1536 248.633 50.2695V36.5H253.15V74H249L248.78 71.168C246.973 73.3815 244.459 74.4883 241.236 74.4883C238.176 74.4883 235.678 73.235 233.741 70.7285C231.82 68.222 230.86 64.9505 230.86 60.9141V60.5723ZM235.377 61.085C235.377 64.0798 235.995 66.4235 237.232 68.1162C238.469 69.8089 240.178 70.6553 242.359 70.6553C245.224 70.6553 247.315 69.3695 248.633 66.7979V54.6641C247.282 52.1738 245.207 50.9287 242.408 50.9287C240.194 50.9287 238.469 51.7832 237.232 53.4922C235.995 55.2012 235.377 57.7321 235.377 61.085ZM271.293 74.4883C267.712 74.4883 264.799 73.3164 262.553 70.9727C260.307 68.6126 259.184 65.4632 259.184 61.5244V60.6943C259.184 58.0739 259.68 55.7383 260.673 53.6875C261.682 51.6204 263.082 50.0091 264.872 48.8535C266.679 47.6816 268.632 47.0957 270.732 47.0957C274.166 47.0957 276.835 48.2269 278.739 50.4893C280.644 52.7516 281.596 55.9906 281.596 60.2061V62.0859H263.7C263.765 64.6901 264.522 66.7979 265.971 68.4092C267.436 70.0042 269.291 70.8018 271.537 70.8018C273.132 70.8018 274.483 70.4762 275.59 69.8252C276.697 69.1742 277.665 68.3115 278.495 67.2373L281.254 69.3857C279.041 72.7874 275.72 74.4883 271.293 74.4883ZM270.732 50.8066C268.909 50.8066 267.379 51.474 266.142 52.8086C264.905 54.127 264.14 55.9824 263.847 58.375H277.079V58.0332C276.949 55.7383 276.331 53.9642 275.224 52.7109C274.117 51.4414 272.62 50.8066 270.732 50.8066Z" fill="black"/>
</svg>
