<svg width="22" height="31" viewBox="0 0 22 31" fill="none" xmlns="http://www.w3.org/2000/svg">
<path d="M19.5312 24.9609C19.3203 26.7656 18.6523 28.1602 17.5273 29.1445C16.4102 30.1211 14.9219 30.6094 13.0625 30.6094C11.0469 30.6094 9.42969 29.8867 8.21094 28.4414C7 26.9961 6.39453 25.0625 6.39453 22.6406V21C6.39453 19.4141 6.67578 18.0195 7.23828 16.8164C7.80859 15.6133 8.61328 14.6914 9.65234 14.0508C10.6914 13.4023 11.8945 13.0781 13.2617 13.0781C15.0742 13.0781 16.5273 13.5859 17.6211 14.6016C18.7148 15.6094 19.3516 17.0078 19.5312 18.7969H17.2695C17.0742 17.4375 16.6484 16.4531 15.9922 15.8438C15.3438 15.2344 14.4336 14.9297 13.2617 14.9297C11.8242 14.9297 10.6953 15.4609 9.875 16.5234C9.0625 17.5859 8.65625 19.0977 8.65625 21.0586V22.7109C8.65625 24.5625 9.04297 26.0352 9.81641 27.1289C10.5898 28.2227 11.6719 28.7695 13.0625 28.7695C14.3125 28.7695 15.2695 28.4883 15.9336 27.9258C16.6055 27.3555 17.0508 26.3672 17.2695 24.9609H19.5312Z" fill="white"/>
<path d="M4.24219 24.1602H12.3281V26H1.98047V8.9375H4.24219V24.1602Z" fill="white"/>
</svg>
